/* XPM */
static char *display_im6_q16[] = {
/* columns rows colors chars-per-pixel */
"32 32 172 2 ",
"   c #2F972619372D",
".  c #5C572128236E",
"X  c #1ECD23CB5412",
"o  c #255426454809",
"O  c #30E735A84FB5",
"+  c #2823282C5423",
"@  c #3B6236E256D6",
"#  c #23FF2A87639E",
"$  c #25B42CFF6DE5",
"%  c #325A2CB96394",
"&  c #2B57315C6442",
"*  c #308E37E768FB",
"=  c #39773E1A6641",
"-  c #253A2EA8716E",
";  c #273033877B4B",
":  c #29B736117D82",
">  c #32163E1E7A7F",
",  c #3F6040124A80",
"<  c #336B3FF07D15",
"1  c #570F4A55482C",
"2  c #457E46B05B0A",
"3  c #568E4DA056B1",
"4  c #5B195A0453E0",
"5  c #60D94AA64CCC",
"6  c #67E35AAF5329",
"7  c #74545D5B5054",
"8  c #6340614F5BFE",
"9  c #78AA77BA5F02",
"0  c #4BEC4E846E28",
"q  c #5C365E41660A",
"w  c #561B58436D33",
"e  c #439A48A877A3",
"r  c #4D7D56B6789F",
"t  c #54535B1C7D8B",
"y  c #52BE57447EC8",
"u  c #5DA766256980",
"i  c #580564767649",
"p  c #658A6625668C",
"a  c #695D718563F9",
"s  c #7D7A7F4A61CA",
"d  c #677E6BAA735B",
"f  c #72A06D4273D4",
"g  c #76B5663A7380",
"h  c #6B7572C570B8",
"j  c #7908751C7D2C",
"k  c #79CE78577CB1",
"l  c #83F31F1F26E0",
"z  c #81332423365B",
"x  c #88FE47B73737",
"c  c #8B5554B33E8B",
"v  c #C44166003F9B",
"b  c #89C6598C45A8",
"n  c #A3F65CF547BD",
"m  c #9B116C8E583D",
"M  c #A83C64874499",
"N  c #BCF1694F469A",
"B  c #BEF079B45D17",
"V  c #96437A2C6D78",
"C  c #87C57B7B756B",
"Z  c #98327A897445",
"A  c #A80C6CCB6E85",
"S  c #BA657BEE6096",
"D  c #BB6D72807527",
"F  c #CCCA73994D04",
"G  c #C4EB7457509A",
"H  c #D11D76CB4FD0",
"J  c #CC7C7FC5608B",
"K  c #FFFF6E5D6E5C",
"L  c #FFFF73297329",
"P  c #FFFF7E487E48",
"I  c #84E68DD95F91",
"U  c #8CD194A85B10",
"Y  c #9E47A4654F87",
"T  c #99FCA09852EA",
"R  c #A403A9244D21",
"E  c #98B080F8761C",
"W  c #AC0586757805",
"Q  c #287D35538189",
"!  c #2AD93A12851D",
"~  c #2A4B3A448B2E",
"^  c #27283571819F",
"/  c #308B3FAF8958",
"(  c #2A1E3C0892BD",
")  c #3DB54B558519",
"_  c #376345C68857",
"`  c #42A5517B84F7",
"'  c #4A86544F848B",
"]  c #455D51348AF6",
"[  c #5C8264A1843D",
"{  c #584361B98510",
"}  c #63206987873B",
"|  c #7A59790E8829",
" . c #6A7371799427",
".. c #75D77BCD9524",
"X. c #83D983128477",
"o. c #8A6985EA8546",
"O. c #890D8A6A9542",
"+. c #8B658CAD993F",
"@. c #80C58403929A",
"#. c #9C1A9B929CFC",
"$. c #95BA93AA968F",
"%. c #ACB38FA28277",
"&. c #BCDF9AA08B7F",
"*. c #B8BCA0289565",
"=. c #83DD8805A172",
"-. c #8D26915BA302",
";. c #98D19B49A810",
":. c #A605A4A3A4C2",
">. c #A741A7E6ACB7",
",. c #B0DBAB17AA98",
"<. c #A9F1AC4FB9B8",
"1. c #A31BA73EB6ED",
"2. c #B69BB565B372",
"3. c #B8D3B821B7A2",
"4. c #BD3EBC59BC7F",
"5. c #FFFE836B8346",
"6. c #FFFF8B0A8AF5",
"7. c #FFFF93CF93CF",
"8. c #FFFF9B119B11",
"9. c #C98DA600968F",
"0. c #C044BF9792AF",
"q. c #CDA1B3F19F31",
"w. c #D87DBB48AE15",
"e. c #CBD6BBAAB4A8",
"r. c #D211BCD6B869",
"t. c #FFFFA58CA58C",
"y. c #FFFEAC54AC3E",
"u. c #C461C3AF98F8",
"i. c #CC2ACBA4A9D0",
"p. c #D02ECFB5B1E9",
"a. c #CDE0C0A0BA7F",
"s. c #D649D5E3BDBB",
"d. c #E248DBCAB9B4",
"f. c #C543C4CFC592",
"g. c #C5B9C745CF3E",
"h. c #D85FD800C1BB",
"j. c #D9A8D94CC40E",
"k. c #DDD8DD89CB97",
"l. c #C96BCABAD183",
"z. c #D001D0F5D601",
"x. c #D370D2E1D35A",
"c. c #D619D6EBDA85",
"v. c #DCC2DCD1DE03",
"b. c #FFFEC2A5C276",
"n. c #FFFFCCE4CCE4",
"m. c #FF8BCA84C240",
"M. c #E8A3DF1BDA8B",
"N. c #FF96DCC7DCAF",
"B. c #FFFCD1B6D1B6",
"V. c #E766E72FDC1D",
"C. c #EBCBE623DDFC",
"Z. c #EC3AEB55DC44",
"A. c #EA7BE6EED0E6",
"S. c #FFA9E7DED76B",
"D. c #F181EF17DF11",
"F. c #DF49DF96E161",
"G. c #E39EE3C8E517",
"H. c #ECE5EBEEE50F",
"J. c #ED72EC9DEBEC",
"K. c #E94FE59AE440",
"L. c #FFFEE3BAE392",
"P. c #FFFFEEA2EEA2",
"I. c #FF86F9B2E286",
"U. c #F35BF29EEE22",
"Y. c #FFABFBA5EBA2",
"T. c #FC4DF5AEE51D",
"R. c #F01FF02FF0E6",
"E. c #F5A6F587F4C7",
"W. c #FE94F48EF433",
"Q. c #FD9DFC12F5DA",
"!. c #FFB1FF9AFF80",
"~. c None",
/* pixels */
"~.!.!.!.!.!.!.Q.!.!.Y.Q.!.Q.Q.E.!.!.!.!.!.!.!.!.!.!.!.!.!.!.!.!.",
"~.!.!.!.Y.!.Q.u.H.!.!.!.Q.Q.h.s.!.!.Q.!.!.!.!.!.!.!.!.!.!.!.!.!.",
"~.!.!.!.Q.!.!.E.!.L.N.N.W.!.E.P.!.!.Q.!.!.!.!.!.!.!.!.!.!.!.!.!.",
"~.!.!.E.h.!.!.W.W.7.K P L 8.7.y.N.P.Q.!.!.!.!.!.!.!.!.!.!.!.!.!.",
"~.!.!.E.j.Q.N.5.y.b.7.t.8.5.L 6.8.P n.Q.Q.!.!.!.!.!.!.Q.G.2.f.!.",
"~.I.!.!.!.B.5.5.m.Y.!.Q.Q.N.N.P.m.6.N.!.Q.!.!.!.!.!.G.-.s j E.!.",
"~.!.!.!.n.K 5.t.U.u.Q.s.h.!.!.!.!.T.Q.E.k.!.!.!.E.1.{ a 4 l.!.!.",
"~.!.!.P.7.5.S.!.E.H.E.E.E.!.Q.k.!.!.!.U.s.!.!.G...Y u 0 X.Q.!.!.",
"~.0.E.y.5.L.Q.!.i.H.T.A.V.i.E.p.Q.!.!.!.!.!.c.[ ) T u , F.!.!.!.",
"~.V.N.8.t.!.Y.Q.H.Q.Y.s.W.J.!.!.!.I.!.!.!.v.h i t i @ O.!.!.!.!.",
"~.!.P.b.n.!.!.!.!.!.!.Z.H.!.!.!.!.!.!.!.J.[ Y _ ` u 8 F.!.!.!.!.",
"~.!.!.!.!.!.!.!.!.!.!.Q.d.Q.!.!.!.!.!.E.O.) I U s 7 f Q.!.!.!.!.",
"~.!.!.!.!.k.V.!.!.!.!.!.C.q.w.K.!.!.Q.@.8 p u u 0 @ | !.!.!.!.!.",
"~.!.!.!.!.V.J.!.!.!.!.!.M.M N V <.!.E.j b F c c 6 1 +.!.!.!.!.!.",
"~.!.!.!.!.!.!.!.!.!.!.!.Q.&.F n ' R.!.r.E G C B J o.f Q.!.!.!.!.",
"~.!.!.!.!.!.!.!.!.!.!.!.!.E.g x e g.!.a.e.9.W F G m *.!.!.!.!.!.",
"~.!.!.!.!.!.!.!.!.!.!.!.!.E.r + ; ] l.3.4.f.,.S W V K.!.!.!.!.!.",
"~.!.!.!.!.!.!.!.!.!.!.!.!.E.e + ; ( ] ;.Q.R.R.K.:.3.!.!.!.!.!.!.",
"~.!.!.!.!.!.!.!.!.!.!.!.!.!.} # - ~ (  .!.!.!.E.:.,.!.!.!.!.!.!.",
"~.!.!.!.!.!.!.!.!.!.!.!.!.!.l...0 # Q ' E.!.!.Q.3.k E.!.!.!.!.!.",
"~.!.!.!.!.!.!.!.!.!.!.!.!.!.!.!.R.+.& < F.!.!.!.c.d { l.E.!.!.!.",
"~.!.!.!.!.!.!.!.!.!.!.!.!.!.!.!.!.Q.+.! >.!.!.!.J.$.> _ } E.!.!.",
"~.!.!.!.!.!.!.!.!.!.!.!.!.!.!.!.!.!.l.! ' E.!.!.!.f.w ^ = R.!.!.",
"~.!.!.!.!.!.!.!.!.!.!.!.!.!.!.!.!.!.G.> ! <.!.!.!.F.$.* 0 E.!.!.",
"~.!.!.!.!.!.!.!.!.!.!.!.!.!.!.!.!.!.R.e ( ] c.!.!.E.3.q | W.!.!.",
"~.!.!.!.!.!.!.!.!.!.!.!.!.!.!.!.!.!.W.{ ( ( ] l.E.J.e.X.b K.!.!.",
"~.!.!.!.!.!.!.!.!.!.!.!.!.!.!.!.!.!.!.-.~ ( ( / t d d 2 3 J.!.!.",
"~.!.!.!.!.!.!.!.!.!.!.!.!.!.!.!.!.!.!.c./ ( ( ( ( ~ ~ : # w v.!.",
"~.!.!.!.!.!.!.!.!.!.!.!.!.!.!.!.!.!.!.Q.=.( ( ( ( ( ( Q $ + O.!.",
"~.!.!.!.!.!.!.!.!.!.!.!.!.!.!.!.!.!.!.Q.J . % ( ( ( ~ ; # + 3 f.",
"~.!.!.!.!.!.!.!.!.!.!.!.!.!.!.!.!.!.!.!.r.A 1 , O + o o   l . X.",
"~.!.!.!.!.!.!.!.!.!.!.!.!.!.!.!.!.!.!.!.!.!.E.v.a.;.X.X.:.,.,.G."
};
